<svg width="138" height="30" viewBox="0 0 138 30" fill="none" xmlns="http://www.w3.org/2000/svg">
<circle cx="123" cy="15" r="15" fill="#4303A4"/>
<g clip-path="url(#clip0_9_297)">
<path d="M122.995 3C116.381 3 111 8.382 111 14.996C111 21.616 116.381 27 122.995 27C129.615 27 135 21.615 135 14.996C135 8.382 129.615 3 122.995 3ZM116.908 19.404C118.281 18.9833 119.71 18.7683 121.146 18.766C123.56 18.766 125.943 19.378 128.038 20.536C128.163 20.604 128.276 20.828 128.328 21.108C128.378 21.388 128.358 21.675 128.276 21.824C128.237 21.8949 128.185 21.9574 128.122 22.0079C128.059 22.0584 127.987 22.0959 127.909 22.1182C127.832 22.1405 127.75 22.1472 127.67 22.1379C127.59 22.1286 127.512 22.1035 127.442 22.064C125.903 21.2198 124.211 20.6933 122.464 20.5157C120.718 20.3381 118.954 20.513 117.277 21.03C117.2 21.0549 117.119 21.0642 117.038 21.0574C116.958 21.0507 116.879 21.0279 116.807 20.9905C116.736 20.9531 116.672 20.9017 116.62 20.8395C116.568 20.7773 116.53 20.7054 116.506 20.628C116.399 20.278 116.62 19.498 116.908 19.404ZM116.385 14.984C117.937 14.5625 119.537 14.349 121.145 14.349C124.039 14.349 126.912 15.049 129.455 16.375C129.634 16.465 129.765 16.619 129.825 16.807C129.855 16.9019 129.866 17.002 129.857 17.1013C129.848 17.2005 129.82 17.297 129.773 17.385C129.546 17.829 129.28 18.128 129.113 18.128C128.991 18.1275 128.871 18.098 128.763 18.042C126.412 16.8147 123.798 16.1784 121.146 16.188C119.671 16.185 118.202 16.3818 116.78 16.773C116.685 16.7989 116.586 16.8059 116.488 16.7936C116.391 16.7812 116.297 16.7498 116.211 16.701C116.126 16.6523 116.051 16.5872 115.991 16.5095C115.93 16.4317 115.886 16.3429 115.86 16.248C115.748 15.826 116.005 15.088 116.385 14.984V14.984ZM116.25 12.098C116.137 12.1269 116.02 12.1332 115.905 12.1166C115.79 12.0999 115.68 12.0607 115.58 12.0011C115.48 11.9415 115.393 11.8627 115.324 11.7693C115.255 11.676 115.205 11.5698 115.177 11.457C115.054 10.959 115.365 10.381 115.817 10.267C117.561 9.83757 119.349 9.61966 121.145 9.618C124.595 9.618 127.901 10.394 130.969 11.925C131.18 12.0298 131.34 12.214 131.415 12.4372C131.49 12.6603 131.474 12.9041 131.369 13.115C131.226 13.403 130.916 13.713 130.574 13.713C130.44 13.7125 130.307 13.6828 130.186 13.626C127.381 12.2186 124.284 11.4904 121.145 11.5C119.51 11.5 117.863 11.701 116.25 12.098Z" fill="#F8F8F8"/>
</g>
<circle cx="69" cy="15" r="15" fill="#4303A4"/>
<path fill-rule="evenodd" clip-rule="evenodd" d="M57 15.067C57 21.033 61.333 25.994 67 27V18.333H64V15H67V12.333C67 9.333 68.933 7.667 71.667 7.667C72.533 7.667 73.467 7.8 74.333 7.933V11H72.8C71.333 11 71 11.733 71 12.667V15H74.2L73.667 18.333H71V27C76.667 25.994 81 21.034 81 15.067C81 8.43 75.6 3 69 3C62.4 3 57 8.43 57 15.067Z" fill="#F8F8F8"/>
<circle cx="15" cy="15" r="15" fill="#4303A4"/>
<path d="M15.0001 10.193C12.34 10.193 10.1931 12.3399 10.1931 15C10.1931 17.6602 12.34 19.807 15.0001 19.807C17.6603 19.807 19.8071 17.6602 19.8071 15C19.8071 12.3399 17.6603 10.193 15.0001 10.193ZM15.0001 18.1242C13.2798 18.1242 11.8759 16.7203 11.8759 15C11.8759 13.2797 13.2798 11.8758 15.0001 11.8758C16.7204 11.8758 18.1243 13.2797 18.1243 15C18.1243 16.7203 16.7204 18.1242 15.0001 18.1242ZM20.004 8.87579C19.3829 8.87579 18.8814 9.37736 18.8814 9.99845C18.8814 10.6195 19.3829 11.1211 20.004 11.1211C20.6251 11.1211 21.1267 10.6219 21.1267 9.99845C21.1269 9.85097 21.0979 9.7049 21.0416 9.56861C20.9852 9.43232 20.9026 9.30849 20.7983 9.2042C20.694 9.09992 20.5701 9.01723 20.4339 8.96087C20.2976 8.90452 20.1515 8.87561 20.004 8.87579V8.87579ZM24.3704 15C24.3704 13.7063 24.3821 12.4242 24.3095 11.1328C24.2368 9.63283 23.8946 8.30158 22.7978 7.2047C21.6985 6.10548 20.3696 5.76564 18.8696 5.69298C17.5759 5.62033 16.2939 5.63204 15.0025 5.63204C13.7087 5.63204 12.4267 5.62033 11.1353 5.69298C9.63527 5.76564 8.30402 6.10783 7.20714 7.2047C6.10792 8.30392 5.76808 9.63283 5.69542 11.1328C5.62277 12.4266 5.63449 13.7086 5.63449 15C5.63449 16.2914 5.62277 17.5758 5.69542 18.8672C5.76808 20.3672 6.11027 21.6985 7.20714 22.7953C8.30636 23.8945 9.63527 24.2344 11.1353 24.307C12.429 24.3797 13.711 24.368 15.0025 24.368C16.2962 24.368 17.5782 24.3797 18.8696 24.307C20.3696 24.2344 21.7009 23.8922 22.7978 22.7953C23.897 21.6961 24.2368 20.3672 24.3095 18.8672C24.3845 17.5758 24.3704 16.2938 24.3704 15V15ZM22.3079 20.5266C22.1368 20.9531 21.9306 21.2719 21.6001 21.6C21.2696 21.9305 20.9532 22.1367 20.5267 22.3078C19.2939 22.7977 16.3665 22.6875 15.0001 22.6875C13.6337 22.6875 10.704 22.7977 9.47121 22.3102C9.04464 22.1391 8.72589 21.9328 8.39777 21.6024C8.0673 21.2719 7.86105 20.9555 7.68996 20.5289C7.20246 19.2938 7.31261 16.3664 7.31261 15C7.31261 13.6336 7.20246 10.7039 7.68996 9.47111C7.86105 9.04454 8.0673 8.72579 8.39777 8.39767C8.72824 8.06954 9.04464 7.86095 9.47121 7.68986C10.704 7.20236 13.6337 7.31251 15.0001 7.31251C16.3665 7.31251 19.2962 7.20236 20.529 7.68986C20.9556 7.86095 21.2743 8.0672 21.6025 8.39767C21.9329 8.72814 22.1392 9.04454 22.3103 9.47111C22.7978 10.7039 22.6876 13.6336 22.6876 15C22.6876 16.3664 22.7978 19.2938 22.3079 20.5266Z" fill="#F8F8F8"/>
<defs>
<clipPath id="clip0_9_297">
<rect width="24" height="24" fill="white" transform="translate(111 3)"/>
</clipPath>
</defs>
</svg>
